<svg id="Layer_1" data-name="Layer 1" xmlns="http://www.w3.org/2000/svg" viewBox="0 0 80.27 9.72"><defs><style>.cls-1{fill:#6d6e71;}</style></defs><path class="cls-1" d="M195.93,122.69H199a3.61,3.61,0,0,1,1.21.2,2.89,2.89,0,0,1,.93.56,2.32,2.32,0,0,1,.6.82,2.44,2.44,0,0,1,.21,1,3,3,0,0,1-.19,1.1,3.09,3.09,0,0,1-1.3,1.54,3.35,3.35,0,0,1-1,.37l0,.1,1.82,3.51,0,.1h-1.91l-1.79-3.5h-.91L196,132h-1.76Zm2.64,4.2a1.83,1.83,0,0,0,1.16-.36,1.29,1.29,0,0,0,.45-1.08,1.11,1.11,0,0,0-.33-.82,1.25,1.25,0,0,0-.92-.33h-1.54l-.46,2.59Z" transform="translate(-185.81 -122.48)"/><path class="cls-1" d="M206.64,122.69h2.06l1.86,9.31h-1.87l-.41-2.22h-3.55L203.56,132h-2Zm1.34,5.48-.43-2.34-.13-1.12h-.1l-.52,1.12-1.24,2.34Z" transform="translate(-185.81 -122.48)"/><path class="cls-1" d="M213.3,122.69h1.95l2.73,6.24h.1l.22-1.79.78-4.45h1.75L219.18,132h-1.75l-2.88-6.59h-.11l-.2,1.79-.86,4.8h-1.73Z" transform="translate(-185.81 -122.48)"/><path class="cls-1" d="M229.45,130.53a6.79,6.79,0,0,1-.89.77,4.93,4.93,0,0,1-.92.52,4.24,4.24,0,0,1-1,.3,7.25,7.25,0,0,1-1.18.09,4.48,4.48,0,0,1-1.65-.3,4,4,0,0,1-1.34-.86,3.94,3.94,0,0,1-.9-1.36,4.48,4.48,0,0,1-.34-1.8,5.36,5.36,0,0,1,1.58-3.79,5.39,5.39,0,0,1,1.76-1.18,5.78,5.78,0,0,1,2.27-.44,4.46,4.46,0,0,1,2,.43,3.61,3.61,0,0,1,1.36,1.17l-1.41,1.15a2.81,2.81,0,0,0-.89-.8,2.75,2.75,0,0,0-1.32-.28,3.42,3.42,0,0,0-1.39.28,3.69,3.69,0,0,0-1.92,1.94,3.58,3.58,0,0,0-.29,1.43,3.11,3.11,0,0,0,.2,1.13,2.61,2.61,0,0,0,.56.87,2.36,2.36,0,0,0,.83.55,2.76,2.76,0,0,0,1.05.19,3.08,3.08,0,0,0,1.48-.34,5.09,5.09,0,0,0,1.24-.93Z" transform="translate(-185.81 -122.48)"/><path class="cls-1" d="M232.11,122.69h1.76l-.67,3.72h3.93l.66-3.72h1.74L237.88,132h-1.74l.69-3.93H232.9l-.69,3.93h-1.75Z" transform="translate(-185.81 -122.48)"/><path class="cls-1" d="M242.86,124.36l-.38,2.15h3.74l-.3,1.67h-3.73l-.39,2.16H246l-.3,1.66h-5.91l1.66-9.31h5.9l-.3,1.67Z" transform="translate(-185.81 -122.48)"/><path class="cls-1" d="M249.62,132l.77-4.33-2.25-5h2l1.31,3.08h.1l2.36-3.08h2.17l-4,5-.76,4.33Z" transform="translate(-185.81 -122.48)"/><path class="cls-1" d="M256.52,125.63l.86-1a1,1,0,0,1-.45-.37,1.06,1.06,0,0,1-.2-.64,1.13,1.13,0,0,1,.09-.45,1.16,1.16,0,0,1,.25-.36,1,1,0,0,1,.36-.24,1,1,0,0,1,.43-.09,1.13,1.13,0,0,1,1.13,1.14,1,1,0,0,1-.11.46,2.1,2.1,0,0,1-.3.48l-1.37,1.63Z" transform="translate(-185.81 -122.48)"/><path class="cls-1" d="M262,132.21a4,4,0,0,1-1.1-.16,2.87,2.87,0,0,1-1.64-1.32,3.38,3.38,0,0,1-.39-1.16l1.68-.68a1.93,1.93,0,0,0,.14.65,1.54,1.54,0,0,0,.33.52,1.29,1.29,0,0,0,.5.35,1.54,1.54,0,0,0,.67.13,1.92,1.92,0,0,0,1.14-.33,1.05,1.05,0,0,0,.47-.9,1.11,1.11,0,0,0-.34-.81,4,4,0,0,0-1.17-.65l-.46-.18a3.46,3.46,0,0,1-.72-.36,2.46,2.46,0,0,1-.6-.51,2.33,2.33,0,0,1-.42-.7,2.5,2.5,0,0,1-.15-.9,2.32,2.32,0,0,1,.25-1.08,2.53,2.53,0,0,1,.7-.86,3.36,3.36,0,0,1,1-.57,4,4,0,0,1,1.31-.21,3.43,3.43,0,0,1,1.22.2,2.62,2.62,0,0,1,.84.49,2.36,2.36,0,0,1,.51.65,2.53,2.53,0,0,1,.25.65l-1.61.61a1.24,1.24,0,0,0-.43-.7,1.43,1.43,0,0,0-1-.28,1.7,1.7,0,0,0-.51.07,1.48,1.48,0,0,0-.44.2,1,1,0,0,0-.31.32.84.84,0,0,0-.12.45.86.86,0,0,0,.32.7,3,3,0,0,0,1,.53l.54.2a3.72,3.72,0,0,1,1.49,1,2.23,2.23,0,0,1,.56,1.59,2.85,2.85,0,0,1-1,2.22,3.37,3.37,0,0,1-1.13.64A4.16,4.16,0,0,1,262,132.21Z" transform="translate(-185.81 -122.48)"/><path class="cls-1" d="M192.83,126.86a2.43,2.43,0,0,0,.52-.44,2.39,2.39,0,0,0,.35-.63,2.29,2.29,0,0,0,.14-.81,2.19,2.19,0,0,0-.18-.87,2,2,0,0,0-.54-.73,2.62,2.62,0,0,0-.87-.5,3.34,3.34,0,0,0-1.19-.19h-3.31l-.56,3.21h1.75l.28-1.63H191a1.09,1.09,0,0,1,.81.28,1,1,0,0,1,.28.74,1,1,0,0,1-.41.89,1.7,1.7,0,0,1-1.07.31h-4.52l-.27,1.51h4.61a1.23,1.23,0,0,1,.92.31,1.07,1.07,0,0,1,.31.8,1.25,1.25,0,0,1-.12.56,1.09,1.09,0,0,1-.34.4,1.56,1.56,0,0,1-.5.25,2.33,2.33,0,0,1-.59.08h-1.95l.31-1.82h-1.75L186.1,132h3.77a4.78,4.78,0,0,0,1.4-.2,3.66,3.66,0,0,0,1.13-.58,2.6,2.6,0,0,0,1-2.11,1.88,1.88,0,0,0-.36-1.18,2.25,2.25,0,0,0-.87-.7l0-.11A2.56,2.56,0,0,0,192.83,126.86Z" transform="translate(-185.81 -122.48)"/></svg>