<svg id="Layer_1" data-name="Layer 1" xmlns="http://www.w3.org/2000/svg" viewBox="0 0 255.13 69.62"><defs><style>.cls-1{fill:#4c9ed7;}</style></defs><path class="cls-1" d="M153,191.87c0,8-7,15.28-11.71,21.13,1.29,2.81,3.8,7.07,3.8,10.72,0,3.19-2,6.31-5.78,6.31H114.75l2.43-7.53h20l-4.56-10.71c3.8-4.64,12.92-14.22,12.92-19.23,0-1-.84-1.3-2.05-1.45-4.94,0-16.19,11.56-16.88,28.73h-7.52a48.66,48.66,0,0,1,2.51-13.53c2.28-7.37,9.72-22.72,21.81-22.72C149.48,183.59,153,186.4,153,191.87Z" transform="translate(-114.75 -183.36)"/><path class="cls-1" d="M172.43,213.08c-2.35,1.75-6.84,7.07-6.84,8.81a.84.84,0,0,0,.91.69H175l-2.44,7.52h-3.26c-4.72,0-11.18-.68-11.18-8,0-3.11,1.6-6.46,3.57-9H160.5c-.76,0-3.42,1.37-4,4.48l-7.14-2.35,4.18-13.08,7.22,2.36-.38,1h15v7.6Z" transform="translate(-114.75 -183.36)"/><path class="cls-1" d="M203.74,230.1h-7.37a6.77,6.77,0,0,1-4-1.37,13.2,13.2,0,0,1-6.92,1.9c-4.48,0-8.66-3.11-8.66-8.36a10.06,10.06,0,0,1,.76-3.87c4.26-9.73,14.82-12.85,24.25-12.85v7.53A12.82,12.82,0,0,0,200,213c-5.7,0-11.17,1.75-14.44,5.78a4.48,4.48,0,0,0-1.29,3.27c0,.45.45,1.21,1.06,1.21,4.56,0,6.23-4.63,7.22-8.28l7.14,2.35L198,222.58h8.13Z" transform="translate(-114.75 -183.36)"/><path class="cls-1" d="M234.52,230.1h-5.24a6.13,6.13,0,0,1-6.31-6.23,6.36,6.36,0,0,1,.15-1.14l2.66-9.35c-3.57,1.45-7.67,4.26-10,11.55l-1.67,5.17h-7.91l8-24.62h7.91l-.53,1.59a13,13,0,0,1,5.32-1.52c4.56,0,6.53,2.82,6.53,7.3a15.15,15.15,0,0,1-.76,4.18L231,222.58H237Z" transform="translate(-114.75 -183.36)"/><path class="cls-1" d="M261.88,230.1H245a7.26,7.26,0,0,1-7.6-7.6c0-7.83,8.81-17.86,17-17.86h.76a6.86,6.86,0,0,1,6.84,6.84c0,.31-.08.69-.08,1l-.38,3.34h-7.6l.38-3.64c-3.72,1.14-9.42,5.32-9.42,10.18,0,.08.07.23.15.23h19.38Z" transform="translate(-114.75 -183.36)"/><path class="cls-1" d="M292.81,230.1h-5.39a6.18,6.18,0,0,1-6.31-6.23,14,14,0,0,1,.15-1.52l2.81-9c-4.25,1.67-8.82,7.53-10.11,11.55l-1.67,5.17h-7.9l15.2-46.74h7.9l-7.67,23.71a8.33,8.33,0,0,1,4.56-1.52c5.09,0,7.22,3.35,7.22,7.22,0,3.2-1.6,5.63-2.51,9.81h6.15Z" transform="translate(-114.75 -183.36)"/><path class="cls-1" d="M320.25,230.1H303.68c-4.33,0-7.53-2.89-7.53-7.37a15,15,0,0,1,.76-4.18c3.42-11,12.55-14.06,15.59-14.06,4.33,0,8.13,1.75,8.13,6.61,0,2.89-2,7.07-8.36,11.48h10.49ZM308,214a11.53,11.53,0,0,0-3.8,5.78,25.21,25.21,0,0,0,8.59-7.91A7.33,7.33,0,0,0,308,214Z" transform="translate(-114.75 -183.36)"/><path class="cls-1" d="M344.72,219.54c0,13-3.19,29.56-18.32,33.44l-1.82-7.22c7.75-2,11-9.65,12.08-17.1a9.39,9.39,0,0,1-4.79,1.37,8.14,8.14,0,0,1-8.2-8.29,10.46,10.46,0,0,1,.53-3.11c1.29-4.41,2.89-8.74,4.25-13.15h7.91l-5,15.5a5.48,5.48,0,0,0-.15.91c0,.46.23.61.68.61,2.51,0,8.21-8.36,11.48-17h8.29A143.41,143.41,0,0,1,344.72,219.54Z" transform="translate(-114.75 -183.36)"/><path class="cls-1" d="M356.19,195.14H349l4.79-11.78h7.15Z" transform="translate(-114.75 -183.36)"/><path class="cls-1" d="M358.47,230.1H350.8l2.43-7.52h5.24c2.44,0,3.88-1.07,3.88-4a9.05,9.05,0,0,0-.84-3.73c-2,2.59-3.49,4.94-3.49,4.87l-6.08-4.41c-.53.76,10.56-14,10.56-14.67l6.77,3.34-3,4.26a16.52,16.52,0,0,1,3.64,10.34C369.87,225.47,365.31,230.1,358.47,230.1Z" transform="translate(-114.75 -183.36)"/></svg>