<svg id="Layer_1" data-name="Layer 1" xmlns="http://www.w3.org/2000/svg" viewBox="0 0 201.7 25.77"><defs><style>.cls-1{fill:#00aeef;}</style></defs><path class="cls-1" d="M73.21,264.89h8.34a14.6,14.6,0,0,1,5.27.9,11.38,11.38,0,0,1,4,2.53,11,11,0,0,1,2.53,3.91,14.7,14.7,0,0,1,0,10,10.92,10.92,0,0,1-2.53,3.9,11.78,11.78,0,0,1-4,2.51,14.6,14.6,0,0,1-5.27.9H73.21Zm8.13,20.26a10.4,10.4,0,0,0,3.59-.57,7,7,0,0,0,2.58-1.6,6.49,6.49,0,0,0,1.55-2.5,10.45,10.45,0,0,0,0-6.51,6.49,6.49,0,0,0-1.55-2.5,7,7,0,0,0-2.58-1.6,10.4,10.4,0,0,0-3.59-.57H77.86v15.85Z" transform="translate(-73.21 -264.34)"/><path class="cls-1" d="M109.66,290.11a13.13,13.13,0,0,1-5.12-1,12.45,12.45,0,0,1-6.78-6.84,13.48,13.48,0,0,1,0-10.09,12.45,12.45,0,0,1,6.78-6.84,13.61,13.61,0,0,1,10.24,0,12.45,12.45,0,0,1,6.78,6.84,13.48,13.48,0,0,1,0,10.09,12.45,12.45,0,0,1-6.78,6.84A13.13,13.13,0,0,1,109.66,290.11Zm0-4.41a8.4,8.4,0,0,0,3.22-.62,8.19,8.19,0,0,0,2.62-1.73,7.82,7.82,0,0,0,1.76-2.66,9.84,9.84,0,0,0,0-6.93,8,8,0,0,0-1.76-2.67,8.17,8.17,0,0,0-2.62-1.72,8.67,8.67,0,0,0-6.44,0,8.17,8.17,0,0,0-2.62,1.72,7.79,7.79,0,0,0-1.75,2.67,9.7,9.7,0,0,0,0,6.93,7.66,7.66,0,0,0,1.75,2.66,8.19,8.19,0,0,0,2.62,1.73A8.4,8.4,0,0,0,109.66,285.7Z" transform="translate(-73.21 -264.34)"/><path class="cls-1" d="M124,264.89H129l3.83,14.4.55,2.65h.27l.73-2.65,3.55-11.09h4.34l3.58,11.09.69,2.62h.27l.52-2.62,3.58-14.4h4.93l-6.55,24.67h-4.47l-3.86-11.89-.73-2.72h-.27l-.72,2.72-3.86,11.89h-4.48Z" transform="translate(-73.21 -264.34)"/><path class="cls-1" d="M158.82,264.89h5.41l9.92,16.54h.28l-.28-4.76V264.89h4.62v24.67h-4.9L163.4,272.09h-.27l.27,4.75v12.72h-4.58Z" transform="translate(-73.21 -264.34)"/><path class="cls-1" d="M183.73,264.89h4.65v20.26h10.44v4.41H183.73Z" transform="translate(-73.21 -264.34)"/><path class="cls-1" d="M213.29,290.11a13.09,13.09,0,0,1-5.12-1,12.57,12.57,0,0,1-4.08-2.74,12.8,12.8,0,0,1-2.71-4.1,13.48,13.48,0,0,1,0-10.09,12.69,12.69,0,0,1,2.71-4.1,12.42,12.42,0,0,1,4.08-2.74,13.58,13.58,0,0,1,10.23,0,12.52,12.52,0,0,1,4.08,2.74,12.69,12.69,0,0,1,2.71,4.1,13.48,13.48,0,0,1,0,10.09,12.51,12.51,0,0,1-6.79,6.84A13.08,13.08,0,0,1,213.29,290.11Zm0-4.41a8.43,8.43,0,0,0,3.22-.62,8.15,8.15,0,0,0,2.61-1.73,7.68,7.68,0,0,0,1.76-2.66,9.7,9.7,0,0,0,0-6.93,7.82,7.82,0,0,0-1.76-2.67,8.12,8.12,0,0,0-2.61-1.72,8.7,8.7,0,0,0-6.45,0,8,8,0,0,0-2.61,1.72,7.82,7.82,0,0,0-1.76,2.67,9.7,9.7,0,0,0,0,6.93,7.68,7.68,0,0,0,1.76,2.66,8,8,0,0,0,2.61,1.73A8.45,8.45,0,0,0,213.29,285.7Z" transform="translate(-73.21 -264.34)"/><path class="cls-1" d="M236.44,264.89h5.3L251,289.56h-5.14l-2-5.89h-9.51l-2,5.89h-5.13Zm5.89,14.5-2.21-6.16-.89-3H239l-.9,3-2.2,6.16Z" transform="translate(-73.21 -264.34)"/><path class="cls-1" d="M253.9,264.89h8.34a14.6,14.6,0,0,1,5.27.9,11.25,11.25,0,0,1,4,2.53,10.93,10.93,0,0,1,2.54,3.91,14.86,14.86,0,0,1,0,10,10.81,10.81,0,0,1-2.54,3.9,11.64,11.64,0,0,1-4,2.51,14.6,14.6,0,0,1-5.27.9H253.9ZM262,285.15a10.3,10.3,0,0,0,3.58-.57,7,7,0,0,0,2.59-1.6,6.61,6.61,0,0,0,1.55-2.5,10.64,10.64,0,0,0,0-6.51,6.61,6.61,0,0,0-1.55-2.5,7,7,0,0,0-2.59-1.6,10.3,10.3,0,0,0-3.58-.57h-3.48v15.85Z" transform="translate(-73.21 -264.34)"/></svg>