<svg id="Layer_1" data-name="Layer 1" xmlns="http://www.w3.org/2000/svg" viewBox="0 0 192.3 40.6"><defs><style>.cls-1{fill:#00aeef;}</style></defs><path class="cls-1" d="M353.27,417.5a5,5,0,0,0-1.65-1.09,5.53,5.53,0,0,0-4.08,0,5.15,5.15,0,0,0-1.66,1.09,5,5,0,0,0-1.11,1.69,6.2,6.2,0,0,0,0,4.38,5.07,5.07,0,0,0,1.11,1.69,5.42,5.42,0,0,0,5.74,1.09,5.16,5.16,0,0,0,1.65-1.09,4.94,4.94,0,0,0,1.12-1.69,6.2,6.2,0,0,0,0-4.38A4.85,4.85,0,0,0,353.27,417.5Z" transform="translate(-201.35 -400.7)"/><polygon class="cls-1" points="164.64 16.25 164.47 16.25 163.9 18.15 162.51 22.05 166.61 22.05 165.21 18.15 164.64 16.25"/><path class="cls-1" d="M241.83,412.56H221.47a8.31,8.31,0,1,0,0,16.62h20.36a8.31,8.31,0,0,0,0-16.62Zm-20.44,11.08a2.77,2.77,0,1,1,2.77-2.77A2.77,2.77,0,0,1,221.39,423.64Zm20,0a2.77,2.77,0,1,1,2.77-2.77A2.77,2.77,0,0,1,241.41,423.64Z" transform="translate(-201.35 -400.7)"/><path class="cls-1" d="M270,417.74a4.36,4.36,0,0,0-1.63-1,6.59,6.59,0,0,0-2.27-.36h-2.2v10h2.2a6.59,6.59,0,0,0,2.27-.36,4.34,4.34,0,0,0,1.63-1,4,4,0,0,0,1-1.58,6.59,6.59,0,0,0,0-4.12A4,4,0,0,0,270,417.74Z" transform="translate(-201.35 -400.7)"/><path class="cls-1" d="M287.7,417.5a5.15,5.15,0,0,0-1.66-1.09,5.53,5.53,0,0,0-4.08,0,5,5,0,0,0-1.65,1.09,4.85,4.85,0,0,0-1.12,1.69,6.2,6.2,0,0,0,0,4.38,4.94,4.94,0,0,0,1.12,1.69,5.16,5.16,0,0,0,1.65,1.09,5.32,5.32,0,0,0,5.74-1.09,5.07,5.07,0,0,0,1.11-1.69,6.2,6.2,0,0,0,0-4.38A5,5,0,0,0,287.7,417.5Z" transform="translate(-201.35 -400.7)"/><path class="cls-1" d="M384.33,417.74a4.4,4.4,0,0,0-1.64-1,6.54,6.54,0,0,0-2.26-.36h-2.21v10h2.21a6.54,6.54,0,0,0,2.26-.36,4.38,4.38,0,0,0,1.64-1,4.27,4.27,0,0,0,1-1.58,6.59,6.59,0,0,0,0-4.12A4.19,4.19,0,0,0,384.33,417.74Z" transform="translate(-201.35 -400.7)"/><path class="cls-1" d="M201.35,400.7v40.6h192.3V400.7Zm54.18,20.17a13.68,13.68,0,0,1-13.69,13.68H221.45a13.68,13.68,0,0,1-13.68-13.68h0a13.69,13.69,0,0,1,13.68-13.68h20.39a13.69,13.69,0,0,1,13.69,13.68Zm18.15,3.69a7,7,0,0,1-1.6,2.47,7.36,7.36,0,0,1-2.53,1.59,9.25,9.25,0,0,1-3.34.56h-5.27V413.57h5.27a9.25,9.25,0,0,1,3.34.57,7.24,7.24,0,0,1,2.53,1.6,7.07,7.07,0,0,1,1.6,2.48,9.41,9.41,0,0,1,0,6.34Zm17.85,0a7.86,7.86,0,0,1-4.29,4.33,8.65,8.65,0,0,1-6.48,0,8.07,8.07,0,0,1-2.58-1.73,8,8,0,0,1-1.71-2.6,8.1,8.1,0,0,1-.62-3.19,8.18,8.18,0,0,1,.62-3.2,7.9,7.9,0,0,1,1.71-2.59,8.07,8.07,0,0,1,2.58-1.73,8.65,8.65,0,0,1,6.48,0,7.88,7.88,0,0,1,4.29,4.32,8.19,8.19,0,0,1,.63,3.2A8.11,8.11,0,0,1,291.53,424.57Zm17.52,4.61h-2.83l-2.44-7.52-.46-1.72h-.18l-.45,1.72-2.45,7.52h-2.83l-4.32-15.61h3.12l2.42,9.12.35,1.68h.17l.46-1.68,2.25-7h2.74l2.27,7,.44,1.65h.17l.33-1.65,2.27-9.12h3.11Zm18.68,0h-3.09L318,418.13h-.17l.17,3v8h-2.9V413.57h3.42L324.81,424H325l-.18-3v-7.46h2.92Zm12.69,0h-9.55V413.57h2.95v12.82h6.6Zm16.69-4.61a8,8,0,0,1-1.71,2.6,8.07,8.07,0,0,1-2.58,1.73,8.65,8.65,0,0,1-6.48,0,7.86,7.86,0,0,1-4.29-4.33,8.1,8.1,0,0,1-.62-3.19,8.18,8.18,0,0,1,.62-3.2,7.88,7.88,0,0,1,4.29-4.32,8.65,8.65,0,0,1,6.48,0,8.07,8.07,0,0,1,2.58,1.73,7.9,7.9,0,0,1,1.71,2.59,8.18,8.18,0,0,1,.62,3.2A8.1,8.1,0,0,1,357.11,424.57Zm13.09,4.61-1.28-3.72h-6l-1.29,3.72h-3.25l5.87-15.61h3.36l5.86,15.61ZM388,424.56a6.89,6.89,0,0,1-1.6,2.47,7.36,7.36,0,0,1-2.53,1.59,9.23,9.23,0,0,1-3.33.56h-5.28V413.57h5.28a9.23,9.23,0,0,1,3.33.57,7.24,7.24,0,0,1,2.53,1.6,6.93,6.93,0,0,1,1.6,2.48,9.25,9.25,0,0,1,0,6.34Z" transform="translate(-201.35 -400.7)"/></svg>